<svg width="13" height="12" viewBox="0 0 13 12" fill="none" xmlns="http://www.w3.org/2000/svg">
<path d="M12.125 1V9.125C12.125 9.29076 12.0591 9.44973 11.9419 9.56694C11.8247 9.68415 11.6657 9.75 11.5 9.75C11.3342 9.75 11.1753 9.68415 11.058 9.56694C10.9408 9.44973 10.875 9.29076 10.875 9.125V2.50859L1.94217 11.4422C1.82489 11.5595 1.66583 11.6253 1.49998 11.6253C1.33413 11.6253 1.17507 11.5595 1.05779 11.4422C0.940518 11.3249 0.874634 11.1659 0.874634 11C0.874634 10.8341 0.940518 10.6751 1.05779 10.5578L9.99139 1.625H3.37498C3.20922 1.625 3.05025 1.55915 2.93304 1.44194C2.81583 1.32473 2.74998 1.16576 2.74998 1C2.74998 0.83424 2.81583 0.675269 2.93304 0.558058C3.05025 0.440848 3.20922 0.375 3.37498 0.375H11.5C11.6657 0.375 11.8247 0.440848 11.9419 0.558058C12.0591 0.675269 12.125 0.83424 12.125 1Z" fill="black"/>
</svg>
