<svg width="97" height="32" viewBox="0 0 97 32" fill="none" xmlns="http://www.w3.org/2000/svg">
<g clip-path="url(#clip0_363_147)">
<path d="M-0.101562 0.287209H6.45381C10.102 0.287209 12.0077 2.0896 12.0077 4.30225C12.0077 5.83114 11.1064 6.86772 9.85596 7.41747V7.45576C11.4555 8.0055 12.3568 9.21712 12.3568 10.7652C12.3568 12.9778 10.5742 14.917 6.72277 14.917H-0.101562V0.287209ZM6.25065 6.0855C7.33797 6.0855 7.82726 5.55764 7.82726 4.9696C7.82726 4.38157 7.3351 3.83456 6.25065 3.83456H4.32496V6.0855H6.25065ZM6.31074 11.3723C7.45814 11.3723 8.01038 10.8445 8.01038 10.158C8.01038 9.47148 7.43811 8.94362 6.33077 8.94362H4.3221V11.3723H6.31074ZM13.2982 8.96276V0.287209H17.7647V8.92447C17.7647 10.5491 18.606 11.4106 20.0395 11.4106C21.4731 11.4106 22.3744 10.5491 22.3744 8.90259V0.284474H26.861V8.96003C26.861 12.6414 24.2801 15.2862 20.0367 15.2862C15.7933 15.2862 13.2953 12.6414 13.2953 8.96003L13.2982 8.96276ZM38.2349 0.99285V4.75353C37.2706 4.10806 35.6339 3.65678 34.3005 3.65678C33.0902 3.65678 32.4778 4.02875 32.4778 4.51832C32.4778 5.00789 33.1531 5.26225 34.3635 5.67251C36.4122 6.359 39.1992 7.27798 39.1992 10.3932C39.1992 13.1747 37.0074 15.2315 33.156 15.2315C31.1673 15.2315 29.3447 14.6845 28.2173 13.9597V10.0048C29.3246 10.8664 31.0043 11.5529 32.6238 11.5529C33.9972 11.5529 34.6325 11.0633 34.6325 10.5135C34.6325 9.80789 33.5881 9.4961 32.3376 9.06396C30.6981 8.49507 28.0971 7.47764 28.0971 4.63866C28.0971 2.07319 30.2088 -0.0218506 33.9772 -0.0218506C35.6368 -0.0218506 37.1333 0.388406 38.2378 0.995585H38.2349V0.99285ZM40.3437 0.287209H44.8103V14.917H40.3437V0.287209ZM60.6908 14.917H56.4303L50.9193 7.06191H50.8993V14.917H46.6587V0.287209H50.9193L56.4303 8.00277H56.4503V0.287209H60.6908V14.917ZM62.5335 0.287209H73.1063V4.08618H67.0001V5.84755H72.4911V9.29371H67.0001V11.1152H73.1063V14.9142H62.5335V0.284474V0.287209ZM84.3142 0.99285V4.75353C83.3499 4.10806 81.7132 3.65678 80.3798 3.65678C79.1723 3.65678 78.5571 4.02875 78.5571 4.51832C78.5571 5.00789 79.2324 5.26225 80.4428 5.67251C82.4915 6.359 85.2785 7.27798 85.2785 10.3932C85.2785 13.1747 83.0867 15.2315 79.2353 15.2315C77.2466 15.2315 75.424 14.6845 74.2966 13.9597V10.0048C75.4039 10.8664 77.0835 11.5529 78.7031 11.5529C80.0765 11.5529 80.7117 11.0633 80.7117 10.5135C80.7117 9.80789 79.6674 9.4961 78.4169 9.06396C76.7774 8.49507 74.1764 7.47764 74.1764 4.63866C74.1764 2.07319 76.2881 -0.0218506 80.0565 -0.0218506C81.7161 -0.0218506 83.2126 0.388406 84.3171 0.995585L84.3142 0.99285ZM96.1373 0.99285V4.75353C95.173 4.10806 93.5363 3.65678 92.2029 3.65678C90.9955 3.65678 90.3803 4.02875 90.3803 4.51832C90.3803 5.00789 91.0555 5.26225 92.2659 5.67251C94.3146 6.359 97.1016 7.27798 97.1016 10.3932C97.1016 13.1747 94.9098 15.2315 91.0584 15.2315C89.0698 15.2315 87.2471 14.6845 86.1197 13.9597V10.0048C87.2271 10.8664 88.9067 11.5529 90.5262 11.5529C91.8997 11.5529 92.5349 11.0633 92.5349 10.5135C92.5349 9.80789 91.4905 9.4961 90.2401 9.06396C88.6005 8.49507 85.9995 7.47764 85.9995 4.63866C85.9995 2.07319 88.1112 -0.0218506 91.8796 -0.0218506C93.5392 -0.0218506 95.0357 0.388406 96.1402 0.995585L96.1373 0.99285ZM9.70431 31.6582H14.1709V17.0284H9.70431V31.6582ZM30.0514 17.0284H25.8109V24.744H25.7909L20.2799 17.0284H16.0193V31.6582H20.2599V23.8031H20.2799L25.7909 31.6582H30.0514V17.0284ZM37.242 16.7139C33.4707 16.7139 31.3619 18.8089 31.3619 21.3744C31.3619 24.2134 33.9629 25.2335 35.6025 25.7997C36.8529 26.2318 37.8973 26.5436 37.8973 27.2493C37.8973 27.799 37.262 28.2886 35.8886 28.2886C34.2691 28.2886 32.5894 27.6021 31.4821 26.7405V30.6954C32.6095 31.4202 34.4322 31.9672 36.4208 31.9672C40.2722 31.9672 42.464 29.9105 42.464 27.1289C42.464 24.0137 39.677 23.0947 37.6283 22.4082C36.4208 21.998 35.7427 21.7628 35.7427 21.2513C35.7427 20.7399 36.3578 20.3898 37.5653 20.3898C38.8959 20.3898 40.5354 20.8411 41.4997 21.4865V17.7258C40.3924 17.1187 38.8987 16.7084 37.2391 16.7084V16.7139H37.242ZM43.5084 31.6582H47.975V17.0284H43.5084V31.6582ZM54.2843 27.799H55.1455C57.4604 27.799 58.9568 26.5464 58.9568 24.3529C58.9568 22.1593 57.4604 20.8876 55.1455 20.8876H54.2843V27.8017V27.799ZM63.4635 24.3529C63.4635 28.759 59.9812 31.6582 54.9796 31.6582H49.8177V17.0284H54.9796C59.9784 17.0284 63.4635 19.9467 63.4635 24.3529ZM64.6738 31.6582H75.2466V27.8592H69.1404V26.0376H74.6314V22.5915H69.1404V20.8301H75.2466V17.0311H64.6738V31.6609V31.6582ZM82.2769 23.9426C83.4043 23.9426 84.2856 23.4339 84.2856 22.4137C84.2856 21.3935 83.4043 20.8848 82.2569 20.8848H81.3155V23.9399H82.2798L82.2769 23.9426ZM89.5905 31.6582H84.3256L81.4156 27.1344H81.3126V31.6582H76.8461V17.0284H82.2969C86.1283 17.0284 88.7922 18.653 88.7922 22.1211C88.7922 23.4913 88.157 25.4906 85.6161 26.5081L89.5905 31.6582Z" fill="black"/>
</g>
<defs>
<clipPath id="clip0_363_147">
<rect width="97" height="32" fill="white"/>
</clipPath>
</defs>
</svg>
