<svg width="130" height="25" viewBox="0 0 130 25" fill="none" xmlns="http://www.w3.org/2000/svg">
<path d="M115.973 19.9012H120.622C120.803 20.4922 121.416 21.0833 122.565 21.0833C124.122 21.0833 124.658 20.1086 124.658 18.6672V17.6406H124.555C123.787 18.5428 122.766 19.2064 121.261 19.2064C118.298 19.2064 115.721 16.9977 115.721 12.6789C115.721 8.72294 117.839 5.63804 121.035 5.63804C122.875 5.63804 123.998 6.38464 124.741 7.56675H124.818V6.05282H129.415V18.0243C129.415 20.233 128.647 21.9543 127.498 22.9861C126.297 24.0645 124.586 24.5 122.643 24.5C118.989 24.5 116.437 22.9809 115.973 19.9012ZM124.864 12.4456C124.864 10.7242 124.05 9.33474 122.643 9.33474C121.287 9.33474 120.421 10.5687 120.421 12.4456C120.421 14.2965 121.292 15.629 122.643 15.629C124.045 15.6342 124.864 14.2706 124.864 12.4456ZM110.587 8.41186H110.665C111.659 6.48315 112.963 5.76766 114.623 5.76766C115.004 5.76766 115.262 5.81951 115.417 5.89728V10.1384H115.314C112.479 9.62508 110.819 10.9887 110.819 14.0943V19.8752H105.99V6.05282H110.587V8.41186ZM0.738647 0.5H10.1912C11.9797 0.5 13.3558 0.935515 14.3299 1.73396C15.4278 2.63091 16.0153 3.96857 16.0153 5.56027C16.0153 7.41121 15.2731 8.5674 13.7424 9.28808V9.36585C15.737 10.0347 16.8864 11.8338 16.8864 14.0165C16.8864 16.0956 16.0926 17.7184 14.7938 18.6931C13.696 19.4916 12.2683 19.8752 10.3768 19.8752H0.738647V0.5ZM9.73251 15.5823C10.8819 15.5823 11.722 14.8876 11.722 13.6018C11.722 12.2641 10.8046 11.6212 9.70674 11.6212H5.97519V15.5771H9.73251V15.5823ZM9.24287 8.08004C10.2634 8.08004 11.0056 7.51491 11.0056 6.38464C11.0056 5.2803 10.2376 4.74109 9.2171 4.74109H5.97519V8.08004H9.24287Z" fill="black"/>
<path d="M17.7522 0.5H22.7053V19.8752H17.7522V0.5ZM23.6536 12.9848C23.6536 8.61925 26.4626 5.66397 30.8075 5.66397C35.1524 5.66397 37.9098 8.61925 37.9098 12.9848C37.9098 17.3814 35.1524 20.3056 30.8075 20.3056C26.4626 20.3108 23.6536 17.3814 23.6536 12.9848ZM33.0031 12.9848C33.0031 10.5687 32.2352 9.05476 30.7559 9.05476C29.2767 9.05476 28.5603 10.5687 28.5603 12.9848C28.5603 15.4268 29.2767 16.9407 30.7559 16.9407C32.2352 16.9459 33.0031 15.4268 33.0031 12.9848ZM38.4716 12.9848C38.4716 8.61925 41.2806 5.66397 45.6254 5.66397C49.9703 5.66397 52.7278 8.61925 52.7278 12.9848C52.7278 17.3814 49.9703 20.3056 45.6254 20.3056C41.2806 20.3108 38.4716 17.3814 38.4716 12.9848ZM47.8211 12.9848C47.8211 10.5687 47.0531 9.05476 45.5739 9.05476C44.0947 9.05476 43.3783 10.5687 43.3783 12.9848C43.3783 15.4268 44.0947 16.9407 45.5739 16.9407C47.0531 16.9459 47.8211 15.4268 47.8211 12.9848ZM53.671 6.05282H58.2684V8.13188H58.3457C59.2631 6.51426 60.5156 5.63804 62.4844 5.63804C64.2213 5.63804 65.5253 6.50907 66.1902 8.02819H66.2675C67.3911 6.20317 68.8497 5.63804 70.5351 5.63804C73.7306 5.63804 75.1067 8.00227 75.1067 11.1857V19.8701H70.2774V12.0619C70.2774 10.6465 69.8444 9.72359 68.6178 9.72359C67.4169 9.72359 66.8035 10.8539 66.8035 12.347V19.8752H61.969V12.0619C61.969 10.6465 61.5361 9.72359 60.3094 9.72359C59.1085 9.72359 58.4952 10.8539 58.4952 12.347V19.8752H53.671V6.05282ZM81.003 18.0761H80.9515V19.8752H76.354V0.5H81.1834V7.48898H81.2607C82.1781 6.28095 83.4048 5.63804 85.1675 5.63804C88.6156 5.63804 90.6102 8.77479 90.6102 12.9329C90.6102 17.6354 88.4403 20.3315 84.8634 20.3315C83.379 20.3367 81.8483 19.616 81.003 18.0761ZM85.7035 12.8863C85.7035 10.6517 84.8892 9.2103 83.4306 9.2103C81.9513 9.2103 81.003 10.6517 81.003 12.8863C81.003 15.0949 81.9462 16.5622 83.4306 16.5622C84.9098 16.557 85.7035 15.1209 85.7035 12.8863ZM91.2235 12.9381C91.2235 8.61925 94.0583 5.6173 98.1712 5.6173C100.212 5.6173 101.8 6.26021 103.001 7.4164C104.583 8.95625 105.299 11.3723 105.248 14.2239H96.0271C96.2333 15.9452 97.0476 16.8214 98.5062 16.8214C99.3515 16.8214 100.089 16.4378 100.398 15.5097H105.047C104.232 18.6672 101.805 20.2641 98.3568 20.2641C94.084 20.2589 91.2235 17.3555 91.2235 12.9381ZM96.0271 11.4968H100.418C100.341 9.82728 99.4237 8.95107 98.2743 8.95107C96.9445 8.95107 96.2024 9.90505 96.0271 11.4968Z" fill="black"/>
</svg>
