<svg width="26" height="26" viewBox="0 0 26 26" fill="none" xmlns="http://www.w3.org/2000/svg">
<path d="M10.4579 1.85718V7.56061" stroke="black" stroke-width="2" stroke-linecap="round" stroke-linejoin="round"/>
<path d="M19.7271 9.94683V7.56055H1.19049V18.9674C1.19049 19.1547 1.22738 19.3402 1.29906 19.5132C1.37074 19.6863 1.4758 19.8435 1.60824 19.9759C1.74068 20.1084 1.89792 20.2134 2.07096 20.2851C2.24401 20.3568 2.42947 20.3937 2.61678 20.3937H8.85163" stroke="black" stroke-width="2" stroke-linecap="round" stroke-linejoin="round"/>
<path d="M1.19049 7.56061L3.32992 3.43946C3.56044 2.9751 3.91323 2.58239 4.35031 2.30359C4.78739 2.02478 5.29223 1.87044 5.81049 1.85718H15.1071C15.6376 1.85727 16.1576 2.00542 16.6086 2.28495C17.0595 2.56449 17.4235 2.96432 17.6596 3.43946L19.7271 7.56061" stroke="black" stroke-width="2" stroke-linecap="round" stroke-linejoin="round"/>
<path d="M18.3333 25C19.9246 25 21.4507 24.3679 22.576 23.2426C23.7012 22.1174 24.3333 20.5913 24.3333 19C24.3333 17.4087 23.7012 15.8826 22.576 14.7574C21.4507 13.6321 19.9246 13 18.3333 13C16.742 13 15.2159 13.6321 14.0907 14.7574C12.9655 15.8826 12.3333 17.4087 12.3333 19C12.3333 20.5913 12.9655 22.1174 14.0907 23.2426C15.2159 24.3679 16.742 25 18.3333 25Z" stroke="black" stroke-width="2" stroke-linecap="round" stroke-linejoin="round"/>
<path d="M20.7333 16.6001L18.3333 19.0001" stroke="black" stroke-width="2" stroke-linecap="round" stroke-linejoin="round"/>
</svg>
