<svg width="24" height="24" viewBox="0 0 24 24" fill="none" xmlns="http://www.w3.org/2000/svg">
<g clip-path="url(#clip0_545_17)">
<path d="M17.9314 11.9949C17.9314 8.79089 12 0.857178 12 0.857178C12 0.857178 6.06857 8.79089 6.06857 11.9949C6.06835 12.7738 6.22163 13.5451 6.51965 14.2648C6.81767 14.9844 7.2546 15.6382 7.80545 16.1889C8.3563 16.7396 9.01028 17.1764 9.73001 17.4742C10.4497 17.772 11.2211 17.9251 12 17.9246C13.5728 17.9246 15.0812 17.2999 16.1935 16.1879C17.3059 15.0759 17.931 13.5677 17.9314 11.9949Z" stroke="black" stroke-width="2" stroke-linecap="round" stroke-linejoin="round"/>
<path d="M0.857147 17.9932C2.17873 19.6666 3.87679 21.0042 5.81309 21.8973C7.74939 22.7904 9.86921 23.2136 12 23.1326C14.1308 23.2134 16.2505 22.79 18.1868 21.8969C20.123 21.0039 21.8211 19.6664 23.1429 17.9932" stroke="black" stroke-width="2" stroke-linecap="round" stroke-linejoin="round"/>
</g>
<defs>
<clipPath id="clip0_545_17">
<rect width="24" height="24" fill="white"/>
</clipPath>
</defs>
</svg>
