<svg width="130" height="25" viewBox="0 0 130 25" fill="none" xmlns="http://www.w3.org/2000/svg">
<path fill-rule="evenodd" clip-rule="evenodd" d="M61.6266 8.58315C61.6266 10.7192 61.3314 17.4326 61.3314 17.4326C61.3314 18.7142 61.848 19.3245 63.3241 19.3245V19.8738H57.5673V19.3245C59.0434 19.3245 59.8553 18.7753 59.8553 17.4326L60.3719 6.50812C59.9291 5.65369 59.4862 5.34854 58.3792 5.2875V4.73823H62.8074L67.5309 14.9303L72.3282 4.73823H76.3137V5.22647C75.2066 5.22647 74.5424 5.65369 74.5424 6.69121L75.059 17.2495C75.059 18.8363 75.428 19.2635 76.9779 19.2635V19.8128H70.2617V19.2635C71.5902 19.2635 72.1806 18.8973 72.1068 17.2495C72.1068 17.2495 71.8116 9.86479 71.7378 8.52212L68.4904 15.8458C68.0476 16.7612 67.6047 17.8598 67.3095 19.0194L66.2763 19.0804C65.981 18.287 65.3168 16.8223 65.3168 16.8223C65.3168 16.8223 62.586 10.6582 61.6266 8.58315Z" fill="black"/>
<path fill-rule="evenodd" clip-rule="evenodd" d="M56.1651 19.9349C55.7961 19.8738 55.5008 19.8738 55.1318 19.8738C54.4676 19.8738 53.2129 20.179 51.7368 20.179C46.0539 20.179 41.9208 17.3716 41.9208 12.184C41.9208 7.78979 45.8325 4.43311 51.8106 4.43311C53.2129 4.43311 54.7628 4.67723 56.0913 5.10444C56.3865 4.86032 56.4603 4.73826 56.6817 4.55517H57.1983C57.1245 5.34856 56.7555 7.91185 56.7555 7.91185H56.2389C55.8699 6.38608 54.9104 5.40959 51.8844 5.40959C48.268 5.40959 44.9468 7.78979 44.9468 12.184C44.9468 17.1275 48.3418 19.3246 52.1058 19.3246C54.5414 19.3246 56.0175 18.165 56.9769 16.7613L57.5674 17.0054L56.1651 19.9349Z" fill="black"/>
<path fill-rule="evenodd" clip-rule="evenodd" d="M39.7067 7.54565H39.1163C39.0425 6.20298 38.5258 5.77577 37.1974 5.77577H34.688V17.0664C34.688 18.9584 35.1308 19.3245 36.6069 19.3245V19.8738H30.1121V19.3245C31.5882 19.3245 32.0311 18.9584 32.0311 17.0054V5.77577H29.5217C27.898 5.77577 27.6028 6.14195 27.16 7.54565H26.5695L27.0124 4.31104L27.4552 4.37207C27.6028 4.73825 27.9718 4.73825 29.0051 4.73825H37.4188C38.9687 4.73825 39.3377 4.73825 39.7067 4.31104H40.2233L39.7067 7.54565Z" fill="black"/>
<path fill-rule="evenodd" clip-rule="evenodd" d="M21.3295 20.24C20.1486 20.24 19.1891 20.118 18.4511 19.8738C17.7868 19.7518 17.2702 19.5076 16.975 19.3856C16.606 19.6907 16.3846 20.0569 16.3846 20.0569L15.8679 19.9349L16.2369 16.4561L16.8274 16.5172C17.1964 18.1039 18.4511 19.2635 21.1818 19.2635C23.2484 19.2635 24.6506 17.7988 24.6506 16.273C24.6506 14.9914 24.0602 14.3201 21.9199 13.0384C21.2556 12.6722 20.5914 12.3671 20.0748 12.0619C18.1559 11.0854 16.975 9.92585 16.975 8.03391C16.975 5.89784 19.1153 4.43311 21.9937 4.43311C23.6174 4.43311 24.7245 4.86032 25.0197 4.98238L25.6101 4.43311L26.0529 4.49414L25.6101 7.60669L25.0935 7.48463C25.0935 6.0199 24.0602 5.4096 22.2889 5.4096C20.6652 5.4096 19.4105 6.14196 19.4105 7.48463C19.4105 8.70524 20.5176 9.49864 21.8461 10.231C22.5103 10.5972 23.027 10.9023 23.6174 11.1465C26.6434 12.9163 27.3814 14.0759 27.3814 15.8458C27.3814 18.3481 25.0197 20.24 21.3295 20.24Z" fill="black"/>
<path fill-rule="evenodd" clip-rule="evenodd" d="M11.3659 7.54565H10.7016C10.7016 6.26401 10.0374 5.77576 8.63511 5.77576H4.72348V11.4516H7.23282C8.5613 11.4516 8.78271 10.9023 9.00413 9.92584H9.59456V13.9539H9.00413C8.85652 12.8553 8.5613 12.4281 7.15902 12.4281H4.72348V17.2495C4.72348 19.0194 5.24011 19.2635 6.64239 19.2635V19.8128H0V19.2635C1.6237 19.2635 1.91891 18.8973 1.91891 17.2495V6.69122C1.91891 5.71473 1.40228 5.22649 0 5.22649V4.73824H9.07793C10.6278 4.73824 10.9968 4.67721 11.2183 4.25H11.8087L11.3659 7.54565Z" fill="black"/>
<path fill-rule="evenodd" clip-rule="evenodd" d="M105.171 8.40006V17.0664C105.171 18.9583 105.688 19.3245 107.09 19.3245V19.8738H96.8312V19.3245C97.6431 19.3245 98.3073 19.0804 98.3073 18.6532C98.3073 18.348 98.2335 17.8598 98.0121 17.3715L97.2002 15.2965H91.5173C91.4435 15.6017 90.4102 17.9819 90.4102 18.5922C90.4102 19.1414 91.2221 19.3245 91.7387 19.3245V19.8738H86.9414V19.3245C87.8271 19.3245 88.4913 19.2635 89.0818 17.7377L93.51 6.01987C93.2148 5.53163 92.9196 5.34854 92.3292 5.2875V4.73823H96.2408L100.964 17.0054C101.407 18.287 101.85 18.9583 102.514 19.2635C103.547 18.9583 103.843 18.7142 103.843 17.0054V6.69121C103.031 5.83678 102.957 5.22647 101.481 5.22647V4.73823H105.909L113.216 14.9914V7.17945C113.216 5.59266 112.773 5.22647 111.297 5.22647V4.73823H121.039V5.22647C120.449 5.22647 119.932 5.4706 119.932 5.95884C119.932 6.32502 120.08 6.69121 120.301 7.11842L123.106 12.0619L125.836 7.24048C126.279 6.56915 126.353 6.26399 126.353 5.89781C126.353 5.4706 125.984 5.22647 125.246 5.22647V4.73823H129.822V5.22647C128.715 5.22647 127.977 6.0809 127.46 7.11842L123.917 13.1604V17.1274C123.917 18.8363 124.434 19.2635 125.836 19.2635V19.8128H119.194V19.2635C120.596 19.2635 121.113 18.8363 121.113 17.1274V13.7707L117.275 7.05739C116.611 5.77575 116.316 5.4706 115.873 5.2875C114.987 5.59266 114.766 6.0809 114.766 7.24048V18.287C114.766 18.287 114.839 19.1414 114.913 20.179L113.806 20.24L105.171 8.40006ZM94.3219 7.72873L91.8863 14.259H96.905L94.3219 7.72873Z" fill="black"/>
<path fill-rule="evenodd" clip-rule="evenodd" d="M83.5465 14.259C83.5465 14.259 82.7346 14.259 82.218 14.259V17.3715C82.218 18.9583 82.7346 19.3245 84.2107 19.3245V19.8738H77.4945V19.3245C78.8968 19.3245 79.4135 18.8973 79.4135 17.3105V7.11842C79.4135 5.53163 78.8968 5.22647 77.4945 5.22647V4.73823H82.5132C87.3843 4.73823 90.2627 5.95884 90.2627 9.25449C90.3365 12.7332 86.8677 14.259 83.5465 14.259ZM82.6608 5.77575H82.218V13.1604H83.0299C85.9082 13.1604 87.3843 12.0619 87.3843 9.37655C87.3843 6.63018 86.0558 5.77575 82.6608 5.77575Z" fill="black"/>
<path fill-rule="evenodd" clip-rule="evenodd" d="M53.2129 16.9443C49.8917 16.9443 47.6776 14.9914 47.6776 12.184C47.6776 9.49862 50.0393 7.42358 53.2129 7.42358C56.3127 7.42358 58.6745 9.43759 58.6745 12.184C58.6745 14.8693 56.2389 16.9443 53.2129 16.9443ZM53.2129 8.33904C50.925 8.33904 50.187 10.17 50.187 12.245C50.187 14.198 50.8512 16.1509 53.2129 16.1509C55.5009 16.1509 56.1651 14.198 56.1651 12.184C56.1651 10.231 55.2795 8.33904 53.2129 8.33904Z" fill="black"/>
<path fill-rule="evenodd" clip-rule="evenodd" d="M14.9823 16.0899V15.6017C15.8679 15.6017 16.0155 15.3576 16.0155 15.1745C16.0155 14.8693 15.9417 14.6862 15.8679 14.4421C15.8679 14.4421 15.7203 13.8928 15.4989 13.4656H12.1039L11.7349 14.3811C11.6611 14.6252 11.5873 14.8083 11.5873 15.1134C11.5873 15.4186 11.9563 15.6017 12.4729 15.6017V16.0899H9.07794V15.6017C9.96359 15.6017 10.2588 15.3576 10.6278 14.6252L13.211 8.15597C13.1372 7.85082 12.842 7.66772 12.3253 7.66772V7.11845H15.1299C17.4178 12.6112 18.0083 14.0149 18.0083 14.0149C18.4511 15.2355 18.8939 15.6017 19.5582 15.6017V16.0899H14.9823ZM13.7276 9.13246L12.3991 12.6722H15.1299L13.7276 9.13246Z" fill="black"/>
</svg>
