<svg width="134" height="32" viewBox="0 0 134 32" fill="none" xmlns="http://www.w3.org/2000/svg">
<path d="M9.28023 13.8814L8.9143 17.0092H3.26144V31.6247H0V0.376843H10.3446L10.0166 3.61317H3.26144V13.8181H9.28782L9.28023 13.8814ZM99.3312 3.61317H93.2548V13.4081H97.5061L97.5001 13.4714L97.1326 16.5992H93.2548V17.3016V28.4336H98.0421L98.0361 28.4984L97.6686 31.6247H93.2548H89.9933V0.37835H99.6592L99.3312 3.61317ZM26.169 32C23.24 32 21.4894 29.9304 21.4894 26.4634V22.1523H24.4669V26.8388C24.4669 28.105 24.9877 28.9973 26.0278 28.9973C27.162 28.9973 27.6813 28.1999 27.6813 26.8388C27.6813 23.6959 26.7824 21.0203 25.1289 17.4086C23.6637 14.2643 21.6367 9.43313 21.6367 6.19379C21.6367 2.5761 23.1019 0 26.4575 0C29.0569 0 30.7089 1.97164 30.7089 5.53808V10.1733H27.7769V5.30293C27.7769 3.89505 27.3047 3.23633 26.4529 3.23633C25.5085 3.23633 24.8465 3.84832 24.8465 5.16124C24.8465 6.97913 25.7909 10.8893 27.5871 14.9682C29.3378 18.8617 30.8486 22.7101 30.8486 25.9931C30.8486 30.871 28.0578 31.9985 26.169 31.9985V32ZM129.32 32C126.39 32 124.641 29.9364 124.641 26.4634V22.1523H127.623V26.8388C127.623 28.105 128.144 28.9973 129.184 28.9973C130.318 28.9973 130.837 28.1999 130.837 26.8388C130.837 23.6959 129.938 21.0203 128.285 17.4086C126.82 14.2643 124.793 9.43313 124.793 6.19379C124.793 2.5761 126.258 0 129.613 0C132.213 0 133.865 1.97164 133.865 5.53808V10.1733H130.928V5.30293C130.928 3.89505 130.456 3.23783 129.604 3.23783C128.66 3.23783 127.998 3.84832 127.998 5.16275C127.998 6.98064 128.942 10.8908 130.739 14.9697C132.482 18.8617 134 22.7101 134 25.9946C134 30.8725 131.211 32 129.32 32ZM39.9238 31.6247V16.7982H37.2302V31.6247H33.9202V0.376843H37.2302V13.4684H39.9238V0.376843H43.1837V31.6247H39.9238ZM46.4543 0.376843H49.7613V31.6247H46.4543V0.376843ZM57.4746 32C54.9222 32 52.7965 29.8414 52.7965 26.6518V5.34966C52.7965 2.20529 54.9222 0 57.4746 0C60.0269 0 62.1541 2.20529 62.1541 5.34966V26.6518C62.1541 29.8414 60.0284 32 57.4746 32ZM58.8411 4.92609C58.8411 4.08347 58.3218 3.41872 57.4746 3.41872C56.5772 3.41872 56.108 4.07593 56.108 4.92609V27.0739C56.108 27.9648 56.5802 28.5813 57.4746 28.5813C58.3248 28.5813 58.8411 27.9783 58.8411 27.0739V4.92609ZM72.4638 31.6247L68.8228 15.8606L68.0181 11.355V31.6247H65.1377V0.376843H68.4447L71.4708 16.1409L72.1784 20.6917V0.376843H75.0617V31.6247H72.4638ZM83.3414 31.6247H78.0271V0.376843H83.3414C85.1831 0.376843 87.4986 1.31443 87.4986 5.30293V11.0747C87.4986 12.7644 86.9323 13.9387 85.6569 14.6396C86.9323 15.3933 87.4986 16.5615 87.4986 18.206V26.6986C87.4986 30.6856 85.1831 31.6247 83.3414 31.6247ZM84.2858 5.20948C84.2858 4.12869 83.8591 3.70211 83.2442 3.70211H81.3386V13.1865H83.103C83.812 13.1865 84.2858 12.6227 84.2858 11.5435V5.20948ZM84.2858 17.8292C84.2858 16.7982 83.812 16.1877 83.103 16.1877H81.3386V28.3401H83.2442C83.8515 28.3401 84.2858 27.8728 84.2858 26.792V17.8292ZM106.518 31.6247L106.188 25.6193H103.539L103.025 31.6247H100.095L103.262 0.376843H106.808L109.926 31.6247H106.518ZM105.054 8.10966L103.823 22.2428H105.948L105.054 8.10966ZM119.409 31.6247L115.769 15.8606L114.966 11.355V31.6247H112.082V0.376843H115.391L118.416 16.1409L119.126 20.6917V0.376843H122.008V31.6247H119.409ZM16.3679 31.6247L16.0385 25.6193H13.3904L12.8712 31.6247H9.94223L13.108 0.376843H16.6534L19.7736 31.6247H16.3679ZM14.9042 8.10966L13.6759 22.2428H15.8016L14.9042 8.10966Z" fill="black"/>
</svg>
