<svg width="438" height="103" viewBox="0 0 438 103" fill="none" xmlns="http://www.w3.org/2000/svg">
<path d="M0.449219 99.0969V3.59195H86.29V29.8558H31.9431V42.8172H83.9024V65.5565H31.9431V99.0969H0.449219Z" fill="black"/>
<path d="M95.6131 99.0969V3.59195H127.107V99.0969H95.6131Z" fill="black"/>
<path d="M235.673 99.0969H204.747L191.786 74.4248H167.91V99.0969H136.416V3.59195H191.104C217.595 3.59195 232.489 14.9616 232.489 40.0885C232.489 52.9362 226.691 62.0319 218.618 67.7167L235.673 99.0969ZM167.91 29.7421V50.8897H188.944C196.902 50.8897 200.995 47.024 200.995 40.3159C200.995 33.6078 196.902 29.7421 188.944 29.7421H167.91Z" fill="black"/>
<path d="M285.319 102.28C252.347 102.167 236.771 91.9341 237.567 67.1483H265.877C266.218 73.629 271.676 77.6083 285.319 77.722C297.371 77.8357 302.942 74.4248 302.942 69.9907C302.942 66.9209 301.237 63.7374 291.914 62.373L279.634 60.4402C261.557 57.4841 239.841 55.3238 239.841 30.8791C239.841 12.0055 255.19 0.408447 285.547 0.408447C312.947 0.408447 332.048 8.0261 331.48 35.3132H303.397C302.26 28.9463 296.916 24.9669 284.864 24.9669C274.404 24.9669 270.084 28.1504 270.084 32.4708C270.084 35.1996 271.789 38.4967 279.066 39.6337L289.185 41.3392C308.172 44.5227 334.209 45.0911 334.209 71.2413C334.209 92.0478 318.064 102.394 285.319 102.28Z" fill="black"/>
<path d="M437.667 3.59195V29.8558H403.331V99.0969H371.837V29.8558H337.5V3.59195H437.667Z" fill="black"/>
</svg>
