<svg width="72" height="25" viewBox="0 0 72 25" fill="none" xmlns="http://www.w3.org/2000/svg">
<path fill-rule="evenodd" clip-rule="evenodd" d="M43.8593 8.38294C42.7127 8.38294 41.8049 8.61111 40.8971 9.1131C40.8971 6.60317 40.8971 4.27579 40.9927 3.5L35.4028 4.45833V4.91468L35.9761 5.00595C36.7405 5.14286 36.9794 5.55357 37.1227 6.5119C37.2661 8.42857 37.2183 18.5139 37.1227 20.2024C38.6038 20.5218 40.1805 20.75 41.7571 20.75C46.1526 20.75 48.7803 18.1488 48.7803 14.0417C48.8281 10.756 46.6782 8.38294 43.8593 8.38294ZM41.9482 19.8373C41.6138 19.8373 41.1838 19.8373 40.9449 19.746C40.8494 18.6508 40.8016 13.996 40.8494 9.88889C41.3271 9.75198 41.6616 9.66072 42.0916 9.66072C43.9071 9.66072 44.9104 11.7143 44.9104 14.2242C44.9104 17.4187 43.6682 19.8373 41.9482 19.8373Z" fill="black"/>
<path fill-rule="evenodd" clip-rule="evenodd" d="M14.572 3.81937H0V4.54952L0.81221 4.64079C1.91108 4.7777 2.2933 5.41659 2.48441 6.92254C2.72329 9.75191 2.62774 14.9087 2.48441 17.3729C2.34107 18.8789 1.91108 19.5634 0.81221 19.6547L0 19.7916V20.4305H9.3643V19.7916L8.36098 19.6547C7.26211 19.5634 6.87989 18.8789 6.68878 17.3729C6.59323 16.3233 6.54545 14.6805 6.54545 12.6269L8.55209 12.7182C9.79429 12.7182 10.3676 13.6765 10.6065 14.9999H11.3709V9.34119H10.6065C10.3676 10.6646 9.79429 11.6229 8.55209 11.6229L6.54545 11.7142C6.54545 9.02175 6.64101 6.51183 6.68878 5.00587H9.60318C11.8487 5.00587 12.9954 6.32929 13.8076 8.7023L14.6198 8.47413L14.572 3.81937Z" fill="black"/>
<path fill-rule="evenodd" clip-rule="evenodd" d="M19.2541 8.24606C23.4108 8.24606 25.4652 10.9385 25.4652 14.498C25.4652 17.875 23.1719 20.75 19.0153 20.75C14.8587 20.75 12.8042 18.0576 12.8042 14.498C12.8042 11.0754 15.1453 8.24606 19.2541 8.24606ZM19.0153 9.02185C17.1997 9.02185 16.722 11.3949 16.722 14.4524C16.722 17.4643 17.5342 19.883 19.2064 19.883C21.1175 19.883 21.5952 17.5099 21.5952 14.4524C21.5952 11.4861 20.783 9.02185 19.0153 9.02185Z" fill="black"/>
<path fill-rule="evenodd" clip-rule="evenodd" d="M49.8792 14.5437C49.8792 11.3036 52.0292 8.20046 56.2336 8.20046C59.7213 8.20046 61.3457 10.6647 61.3457 13.9048H53.6536C53.5581 16.8255 55.0391 18.9703 58.0491 18.9703C59.3869 18.9703 60.0557 18.6509 60.8679 18.1032L61.2024 18.514C60.3902 19.6092 58.5746 20.7044 56.2336 20.7044C52.5547 20.7501 49.8792 18.1945 49.8792 14.5437ZM53.7014 13.0834L57.5713 12.9921C57.5713 11.3949 57.3324 9.02189 55.8991 9.02189C54.5136 9.02189 53.7969 11.258 53.7014 13.0834Z" fill="black"/>
<path fill-rule="evenodd" clip-rule="evenodd" d="M71.2356 8.88495C70.2322 8.47424 68.9423 8.24606 67.4134 8.24606C64.3557 8.24606 62.4446 9.98019 62.4446 12.0338C62.4446 14.0873 63.8301 14.9544 65.8367 15.5933C67.8912 16.3234 68.4645 16.8711 68.4645 17.7838C68.4645 18.7421 67.7001 19.6092 66.4101 19.6092C64.8334 19.6092 63.6868 18.7421 62.779 16.3691L62.2057 16.506L62.3012 19.9742C63.3046 20.385 65.1201 20.7044 66.6967 20.7044C69.9456 20.7044 72 19.1072 72 16.6885C72 15.0457 71.0922 14.0873 68.9423 13.3115C66.649 12.4445 65.789 11.8969 65.789 10.8473C65.789 9.79765 66.5534 9.11312 67.5089 9.11312C68.99 9.11312 69.9933 9.98019 70.7578 12.125L71.3311 11.9881L71.2356 8.88495Z" fill="black"/>
<path fill-rule="evenodd" clip-rule="evenodd" d="M36.215 8.56556C34.8295 7.78976 32.3451 8.15484 31.0073 11.0298L31.1028 8.24611L25.5607 9.29572V9.75207L26.134 9.84334C26.8985 9.93461 27.2329 10.2997 27.2807 11.3493C27.424 13.266 27.3762 16.5517 27.2807 18.2402C27.1851 19.1985 26.8507 19.6548 26.134 19.7461L25.5607 19.8374V20.4763H33.2528V19.8374L32.2495 19.7461C31.4373 19.6548 31.1506 19.1985 31.1028 18.2402C30.9595 16.7342 30.9595 13.7223 31.0073 11.8513C31.4373 11.3037 33.2528 10.8017 34.8772 11.8513L36.215 8.56556Z" fill="black"/>
</svg>
