<svg width="164" height="20" viewBox="0 0 164 20" fill="none" xmlns="http://www.w3.org/2000/svg">
<g clip-path="url(#clip0_363_153)">
<path d="M4.51694 0.443318V7.77665H12.5849V0.443318H16.9663V19.56H12.5849V11.3133H4.51694V19.56H0.135498V0.443318H4.51694ZM26.1427 12.11V19.56H30.5276V12.2267L37.925 0.443318H33.0397L28.4081 7.99998L23.7452 0.443318H18.8357L26.1427 12.11ZM39.7908 0.443318V19.56H44.1723V12.7067H48.7761C49.8624 12.7328 50.9436 12.555 51.9588 12.1833C52.767 11.8793 53.4954 11.4081 54.0922 10.8033C54.6392 10.2408 55.0497 9.56923 55.2944 8.83665C55.795 7.36142 55.795 5.77189 55.2944 4.29665C55.0494 3.56592 54.6402 2.8957 54.0957 2.33332C53.4973 1.73025 52.7694 1.25935 51.9623 0.953318C50.9468 0.582736 49.8657 0.406093 48.7796 0.433318L39.7908 0.443318ZM44.1723 9.44332V3.70998H47.5774C48.0637 3.70763 48.5494 3.7433 49.0297 3.81665C49.4625 3.87758 49.8789 4.01792 50.2563 4.22998C50.6163 4.44288 50.9102 4.74446 51.1075 5.10332C51.3394 5.56033 51.4493 6.06548 51.4272 6.57332C51.4493 7.08223 51.3394 7.58845 51.1075 8.04665C50.9101 8.40458 50.6161 8.70505 50.2563 8.91665C49.8802 9.12941 49.4649 9.27086 49.0332 9.33332C48.5527 9.40503 48.0671 9.44069 47.5808 9.43999L44.1723 9.44332ZM57.539 0.443318V19.56H72.6638V16.0267H61.9239V11.3333H71.5763V8.06665H61.9239V3.97665H72.4449V0.443318H57.539ZM74.5366 0.443318V19.56H84.189C85.0701 19.5575 85.9472 19.4454 86.7984 19.2267C87.609 19.0267 88.3753 18.6879 89.0603 18.2267C89.7224 17.7802 90.2633 17.1881 90.6378 16.5C91.0438 15.7242 91.2443 14.8644 91.2215 13.9967C91.2542 12.9094 90.9376 11.8388 90.3146 10.93C89.6442 10.0471 88.667 9.4229 87.5593 9.16998C88.3685 8.82629 89.0669 8.28067 89.5815 7.58998C90.065 6.87515 90.3076 6.03494 90.2764 5.18332C90.3018 4.40978 90.1451 3.6407 89.8178 2.93332C89.5275 2.34457 89.0789 1.84063 88.5183 1.47332C87.9116 1.08675 87.2316 0.818336 86.5169 0.683318C85.6629 0.516474 84.793 0.436034 83.9214 0.443318H74.5366ZM78.9146 8.17999V3.70998H83.018C83.3966 3.70844 83.7746 3.73968 84.1473 3.80332C84.4865 3.85737 84.8127 3.97033 85.1097 4.13665C85.3915 4.29717 85.6231 4.52743 85.7803 4.80332C85.9612 5.14197 86.0474 5.51983 86.0305 5.89999C86.0305 6.70443 85.7792 7.28554 85.2765 7.64332C84.7132 8.01882 84.0368 8.20622 83.3516 8.17665L78.9146 8.17999ZM78.9146 16.2933V11.0433H83.6886C84.5038 11.0028 85.31 11.2219 85.9819 11.6667C86.554 12.0867 86.8412 12.7867 86.8435 13.7667C86.8605 14.1918 86.7711 14.6147 86.583 15C86.4155 15.3093 86.1693 15.573 85.8672 15.7667C85.5485 15.9607 85.1951 16.0963 84.8248 16.1667C84.4213 16.2463 84.0103 16.2866 83.5983 16.2867L78.9146 16.2933ZM93.0908 0.443318V19.56H108.219V16.0267H97.4792V11.3333H107.135V8.06665H97.4792V3.97665H108V0.443318H93.0908ZM117.621 0.443318L110.092 19.56H114.498L116.051 15.3033H123.504L125.012 19.56H129.56L122.121 0.443318H117.621ZM117.204 12.17L119.8 5.16998H119.873L122.385 12.17H117.204ZM134.174 14.86C133.923 14.3505 133.803 13.79 133.827 13.2267H129.57C129.526 14.2821 129.757 15.3314 130.241 16.28C130.689 17.1154 131.334 17.839 132.124 18.3933C132.948 18.961 133.875 19.3749 134.859 19.6133C135.903 19.8734 136.977 20.0033 138.055 20C139.267 20.0196 140.476 19.8669 141.641 19.5467C142.584 19.2872 143.465 18.8548 144.237 18.2733C144.915 17.7557 145.456 17.0908 145.814 16.3333C146.172 15.5672 146.353 14.7361 146.346 13.8967C146.387 12.9694 146.139 12.0514 145.633 11.26C145.193 10.607 144.618 10.0468 143.945 9.61332C143.339 9.22296 142.676 8.92079 141.978 8.71665C141.314 8.52998 140.8 8.39999 140.428 8.32665C139.181 8.02665 138.17 7.77332 137.399 7.57998C136.779 7.43714 136.173 7.24308 135.588 6.99998C135.234 6.86331 134.927 6.63194 134.706 6.33332C134.547 6.05494 134.47 5.74038 134.483 5.42332C134.472 5.07061 134.57 4.7226 134.765 4.42332C134.946 4.1572 135.182 3.93015 135.46 3.75665C135.755 3.57475 136.082 3.44703 136.426 3.37998C136.769 3.31091 137.118 3.27518 137.468 3.27332C137.969 3.27078 138.47 3.31544 138.962 3.40665C139.392 3.48747 139.804 3.64097 140.178 3.85998C140.549 4.07451 140.856 4.37773 141.068 4.73998C141.3 5.17996 141.43 5.66354 141.447 6.15665H145.689C145.715 5.17658 145.484 4.20594 145.018 3.33332C144.594 2.56986 143.987 1.91406 143.246 1.41998C142.474 0.906919 141.607 0.538251 140.693 0.333318C139.71 0.107827 138.704 -0.00407998 137.694 -1.5206e-05C136.79 -0.00226406 135.889 0.109812 135.015 0.333318C134.155 0.551706 133.342 0.915143 132.614 1.40665C131.912 1.8819 131.326 2.49847 130.898 3.21332C130.445 3.99394 130.218 4.87678 130.241 5.76998C130.218 6.54475 130.395 7.31295 130.755 8.00665C131.088 8.60648 131.55 9.13147 132.11 9.54665C132.69 9.96603 133.331 10.3028 134.011 10.5467C134.721 10.8104 135.448 11.033 136.186 11.2133C136.913 11.4111 137.629 11.5889 138.333 11.7467C138.981 11.8987 139.616 12.0947 140.234 12.3333C140.735 12.513 141.195 12.786 141.585 13.1367C141.758 13.2973 141.893 13.4905 141.983 13.7039C142.074 13.9173 142.117 14.1464 142.11 14.3767C142.127 14.8061 141.989 15.2279 141.718 15.57C141.449 15.8865 141.108 16.1387 140.72 16.3067C140.328 16.486 139.91 16.6074 139.48 16.6667C139.065 16.7272 138.646 16.7584 138.226 16.76C137.661 16.7633 137.098 16.6961 136.551 16.56C136.045 16.4426 135.566 16.2345 135.14 15.9467C134.735 15.6623 134.405 15.2899 134.178 14.86M153.507 3.97665V19.56H157.892V3.97665H163.864V0.443318H147.534V3.97665H153.507Z" fill="black"/>
</g>
<defs>
<clipPath id="clip0_363_153">
<rect width="164" height="20" fill="white"/>
</clipPath>
</defs>
</svg>
