<svg width="167" height="22" viewBox="0 0 167 22" fill="none" xmlns="http://www.w3.org/2000/svg">
<path d="M146.114 20.2785H153.879V20.2202L152.778 19.6074C151.499 18.878 151.499 18.382 151.499 16.1936V10.5332L159.026 18.2069C160.96 20.1326 162.329 20.7162 164.114 20.7162C165.126 20.7171 166.117 20.4336 166.97 19.8992V19.8408C165.423 19.6074 163.727 18.7613 162.031 17.069L153.939 9.10345L161.139 2.97613C162.158 2.11628 163.301 1.40842 164.531 0.875332L165.483 0.408488V0.350133H158.64V0.408488L159.235 0.962865C159.949 1.60477 160.068 2.04244 159.324 2.68435L151.469 9.48276V4.43501C151.469 2.24668 151.469 1.75066 152.749 1.02122L153.849 0.408488V0.350133H146.114V0.408488L147.215 1.02122C148.494 1.75066 148.494 2.24668 148.494 4.43501V16.1936C148.494 18.382 148.494 18.878 147.215 19.6074L146.084 20.2202L146.114 20.2785ZM124.484 0.408488L125.614 1.02122C126.864 1.75066 126.864 2.24668 126.864 4.43501V17.7692C126.864 18.9947 126.686 19.2281 125.852 19.6658L124.781 20.2493V20.3077H135.79C136.536 20.2792 137.283 20.3183 138.021 20.4244L138.467 15.4058H138.408L137.456 16.6897C136.206 18.382 135.522 18.8196 132.904 18.8196C131.889 18.8419 130.874 18.7834 129.869 18.6446V4.43501C129.869 2.24668 129.869 1.75066 131.119 1.02122L132.249 0.408488V0.350133H124.484V0.408488ZM98.3018 10.008C98.3018 5.07692 101.485 1.51724 106.335 1.51724C110.917 1.51724 114.309 5.45623 114.309 10.6207C114.309 15.5517 111.185 19.1114 106.335 19.1114C101.753 19.1114 98.3018 15.2016 98.3018 10.008ZM95.0885 10.5915C95.0885 16.1645 100.384 20.6286 106.335 20.6286C112.285 20.6286 117.581 15.9602 117.581 10.0371C117.581 4.46419 112.285 0 106.335 0C100.384 0 95.0885 4.66844 95.0885 10.5915ZM74.6784 20.2785H83.0388V20.2202L81.9082 19.6366C80.1528 18.7321 80.0636 18.2069 80.0636 16.1353V10.4164H83.3661C84.7645 10.4164 85.5678 10.6207 85.9546 11.2334L86.3116 11.7586H86.3711L86.8174 7.29443H86.7579L86.2521 7.90716C85.7165 8.60743 85.0918 8.95756 83.6636 8.95756H80.0934V1.95491L83.2471 1.80902C85.2108 1.72149 85.8058 2.04244 86.5199 3.41379L87.1149 4.63926H87.2042L87.6505 0.204244C86.8618 0.309998 86.0662 0.358759 85.2703 0.350133H74.7082V0.408488L75.8388 1.02122C77.1181 1.75066 77.1181 2.24668 77.1181 4.43501V16.1936C77.1181 18.382 77.1181 18.878 75.8388 19.6074L74.7082 20.2202L74.6784 20.2785ZM44.0037 20.2785H51.055V20.2202L49.7162 19.4615C48.5559 18.7905 48.4666 18.2361 48.4666 16.6021V5.92308L63.4618 20.5703H63.5213V4.02653C63.5213 2.39257 63.6105 1.89655 64.7709 1.19629L66.1692 0.408488V0.350133H59.0287V0.408488L60.427 1.19629C61.6171 1.89655 61.7064 2.39257 61.7064 4.02653V14.7056L46.7707 0.0583554H46.7112V16.6021C46.7112 18.2361 46.6219 18.7321 45.4319 19.4324L44.0335 20.2202L44.0037 20.2785ZM27.4912 20.2785H35.2565V20.2202L34.126 19.6074C32.8466 18.878 32.8466 18.382 32.8466 16.1936V4.43501C32.8466 2.24668 32.8466 1.75066 34.126 1.02122L35.2565 0.408488V0.350133H27.5209V0.408488L28.6515 1.02122C29.9011 1.75066 29.9011 2.24668 29.9011 4.43501V16.1936C29.9011 18.382 29.9011 18.878 28.6515 19.6074L27.5209 20.2202L27.4912 20.2785ZM0 20.2785H7.76537V20.2202L6.63478 19.6074C5.38518 18.878 5.38518 18.382 5.38518 16.1936V10.5332L12.9125 18.2069C14.8762 20.1326 16.215 20.7162 18.0002 20.7162C19.0125 20.7188 20.0042 20.4351 20.8564 19.8992V19.8408C19.3093 19.6074 17.6134 18.7613 15.8878 17.069L7.85462 9.10345L14.9952 2.97613C15.977 2.1008 16.8993 1.60477 18.4465 0.846154L19.3985 0.408488V0.350133H12.5555V0.408488L13.1505 0.933687C13.8646 1.60477 13.9836 2.01326 13.2398 2.68435L5.35542 9.45358V4.43501C5.35542 2.24668 5.35542 1.75066 6.60502 1.02122L7.73561 0.408488V0.350133H0V0.408488L1.13059 1.02122C2.38019 1.75066 2.38019 2.24668 2.38019 4.43501V16.1936C2.38019 18.382 2.38019 18.878 1.10084 19.6074L0 20.2202V20.2785Z" fill="black"/>
</svg>
