<svg width="455" height="103" viewBox="0 0 455 103" fill="none" xmlns="http://www.w3.org/2000/svg">
<path d="M0.861816 99.0969V3.59195H32.3557V72.8331H83.2917V99.0969H0.861816Z" fill="black"/>
<path d="M92.5615 99.0969V3.59195H124.055V99.0969H92.5615Z" fill="black"/>
<path d="M236.146 46.3418V99.0969H219.319L218.864 86.4766C212.27 95.5723 200.332 102.28 183.504 102.28C154.171 102.28 131.659 81.9288 131.659 51.3444C131.659 20.7601 153.034 0.408447 186.233 0.408447C208.859 0.408447 231.939 11.3233 235.691 37.0187H204.425C202.492 32.2434 196.238 27.5819 186.915 27.5819C172.817 27.5819 162.925 36.905 162.925 51.3444C162.925 65.7839 173.044 75.107 186.006 75.107C190.667 75.107 202.605 73.8563 205.789 62.7141H184.755V46.3418H236.146Z" fill="black"/>
<path d="M314.541 3.59195H346.035V99.0969H314.541V64.5332H277.476V99.0969H245.982V3.59195H277.476V38.1557H314.541V3.59195Z" fill="black"/>
<path d="M455.001 3.59195V29.8558H420.664V99.0969H389.171V29.8558H354.834V3.59195H455.001Z" fill="black"/>
</svg>
