<svg width="118" height="24" viewBox="0 0 118 24" fill="none" xmlns="http://www.w3.org/2000/svg">
<g clip-path="url(#clip0_363_145)">
<path fill-rule="evenodd" clip-rule="evenodd" d="M27.5153 6.85709V16.2799C27.5153 19.0231 28.3213 20.3785 30.449 20.3785C32.9313 20.3785 33.9953 18.9906 33.9953 15.6026V6.85709H38.5562V23.5461H34.2202L34.2107 21.0559C33.0689 23.0733 30.9651 23.9999 29.0305 23.9999C24.1748 23.9999 22.9544 21.2515 22.9544 17.1192V6.85709H27.5153ZM109.342 6.36878C114.579 6.36878 117.945 9.83687 117.945 15.2008C117.945 20.532 114.579 23.9999 109.342 23.9999C104.137 23.9999 100.771 20.532 100.771 15.2008C100.771 9.83687 104.137 6.36878 109.342 6.36878ZM78.4314 6.26665C84.0443 6.26665 86.7549 11.0194 86.4363 16.1698H74.5401C74.6682 19.0756 76.0714 20.3992 78.5907 20.3992C80.4086 20.3992 81.8755 19.2692 82.163 18.2365H86.1495C84.8736 22.1575 82.163 23.8195 78.4314 23.8195C73.2326 23.8195 70.0113 20.2379 70.0113 15.0712C70.0113 10.0444 73.4243 6.26665 78.4314 6.26665ZM61.3752 6.31573C64.8966 6.31573 67.4286 7.96488 67.4286 12.2932V23.4586H62.8771V14.0033C62.8771 11.7769 62.6853 9.93739 60.097 9.93739C57.541 9.93739 57.0616 12.0674 57.0616 14.1648V23.4586H52.5102V13.9836C52.5141 12.0757 52.5808 9.93739 49.7619 9.93739C48.8669 9.93739 46.6945 10.5184 46.6945 13.7774V23.4586H42.1429V6.76957H46.4378L46.4344 9.13654C47.5987 7.37137 49.4106 6.31573 51.5513 6.31573C53.6321 6.31573 55.491 7.09185 56.3886 9.09648C57.3491 7.64169 59.0746 6.31573 61.3752 6.31573ZM98.8854 6.31573C99.2091 6.31573 99.597 6.37997 99.8875 6.47579V10.7121C99.4677 10.6155 98.7891 10.5509 98.2395 10.5509C94.8792 10.5509 93.7159 12.9713 93.7159 15.9479V23.4586H89.1277V6.77408H93.4897L93.4881 9.95994C94.3509 7.79182 96.656 6.31573 98.8854 6.31573ZM5.00585 0.360844L14.6541 15.9529L14.6514 0.360844H19.3678V23.4586H14.3296L4.71713 7.87934L4.71659 23.4586H0V0.360844H5.00585ZM109.342 9.80421C106.256 9.80421 105.323 12.5025 105.323 15.2008C105.323 17.8664 106.256 20.5649 109.342 20.5649C112.46 20.5649 113.393 17.8664 113.393 15.2008C113.393 12.5025 112.46 9.80421 109.342 9.80421ZM78.3036 9.68692C75.4336 9.68692 74.6043 11.9624 74.5401 13.2626H81.9076C81.493 10.9219 80.5042 9.68674 78.3038 9.68674L78.3036 9.68692ZM83.9656 0.0831299L79.0545 4.65396H75.8966L78.9585 0.0833103H83.9654L83.9656 0.0831299Z" fill="black"/>
</g>
<defs>
<clipPath id="clip0_363_145">
<rect width="118" height="24" fill="white"/>
</clipPath>
</defs>
</svg>
